emandoz presents:

A Clockwork Orange [Eng,Ger,Spa][emandoz 1-gig rip]



A Clockwork Orange
Audio: English, German, Spanish
Subs included
Source: PAL DVD

--------------------------------------------------------------------
A Clockwork Orange (1971)

Video
ID                               : 1
Format                           : AVC
Format/Info                      : Advanced Video Codec
Format profile                   : Main@L3.0
Format settings, CABAC           : Yes
Format settings, ReFrames        : 1 frame
Muxing mode                      : Container profile=Unknown@3.0
Codec ID                         : V_MPEG4/ISO/AVC
Duration                         : 2h 11mn
Nominal bit rate                 : 578 Kbps
Width                            : 640 pixels
Height                           : 400 pixels
Display aspect ratio             : 1.690
Frame rate                       : 25.000 fps
Resolution                       : 24 bits
Colorimetry                      : 4:2:0
Scan type                        : Progressive
Bits/(Pixel*Frame)               : 0.090
Writing library                  : x264 core 65
Encoding settings                : cabac=1 / ref=1 / deblock=1:0:0 / analyse=0x1:0x111 / me=hex / subme=6 / psy_rd=1.0:0.0 / mixed_ref=0 / me_range=16 / chroma_me=1 / trellis=0 / 8x8dct=0 / cqm=0 / deadzone=21,11 / chroma_qp_offset=-2 / threads=3 / nr=0 / decimate=1 / mbaff=0 / bframes=0 / keyint=250 / keyint_min=25 / scenecut=40(pre) / rc=2pass / bitrate=578 / ratetol=1.0 / qcomp=0.60 / qpmin=10 / qpmax=51 / qpstep=4 / cplxblur=20.0 / qblur=0.5 / ip_ratio=1.40 / aq=1:1.00

Audio #1
ID                               : 2
Format                           : AAC
Format/Info                      : Advanced Audio Codec
Format version                   : Version 4
Format profile                   : LC
Format settings, SBR             : No
Codec ID                         : A_AAC
Duration                         : 2h 11mn
Channel(s)                       : 6 channels
Channel positions                : Front: L C R, Rear: L R, LFE
Sampling rate                    : 48.0 KHz
Resolution                       : 16 bits
Language                         : English
Native Bitrate                   : 256 kbps

Audio #2
ID                               : 3
Format                           : Vorbis
Format settings, Floor           : 1
Codec ID                         : A_VORBIS
Duration                         : 2h 11mn
Bit rate mode                    : Constant
Bit rate                         : 112 Kbps
Channel(s)                       : 2 channels, Dolby Surround ProLogic II
Sampling rate                    : 48.0 KHz
Stream size                      : 105 MiB (10%)
Writing library                  : aoTuV Beta 5 (UTC 2006-10-24)
Language                         : German

Audio #3
ID                               : 4
Format                           : Vorbis
Format settings, Floor           : 1
Codec ID                         : A_VORBIS
Duration                         : 2h 11mn
Bit rate mode                    : Constant
Bit rate                         : 112 Kbps
Channel(s)                       : 2 channels, Dolby Surround ProLogic II
Sampling rate                    : 48.0 KHz
Stream size                      : 105 MiB (10%)
Writing library                  : aoTuV Beta 5 (UTC 2006-10-24)
Language                         : Spanish

Subs
German, English, Spanish, Dutch, Swedish, Norwegian, Danish, Finnish, Portugese, Hebraic, Polish, Greek, Czech, Turkish, Hungarian, Icelandic, Croatian, French, Italian, German for the hearing impaired, English for the hearing impaired
--------------------------------------------------------------------


Screenshots:
 
http://img13.imageshack.us/img13/2328/image001lzh.jpg 
http://img29.imageshack.us/img29/8264/image002llp.jpg 
http://img29.imageshack.us/img29/9638/image003qkk.jpg 
http://img199.imageshack.us/img199/9827/image004apj.jpg 
http://img37.imageshack.us/img37/6598/image004wqp.jpg 
http://img37.imageshack.us/img37/5564/image005dlm.jpg